Meisje (2002)

Plot: Muriel moves from a small village to the big city of Brussels, hoping to start an independent life working as a museum guide. She rents a room from Laura, who has a room to spare now that her mother is in hospital. Laura is a vital and candid woman who has a child-wish but leads a very chaotic life. Meanwhile, Muriel's mother has a hard time accepting that her daughter leads a life of her own now, and she also faces some changes at the factory where she works. The movie follows the interconnected lifes of these three women of three different generations, who all face different problems

Cast:
Charlotte Vanden Eynde ...  Muriel 
Els Dottermans ...  Laura 
Frieda Pittoors ...  Martha 
Matthias Schoenaerts ...  Oskar 
Wim Opbrouck ...  Alain 
Nico Sturm ...  Luc

Trailer: 

Details
Original title: Meisje
International title: Girl
Genre: Drama | Romance
Runtime: 93
Country: Belgium
Language: Flemish

Directed by
Dorothée Van Den Berghe

Writing credits
Dorothée Van Den Berghe
Peter van Kraaij

IMDb: http://www.imdb.com/title/tt0304389/

--------------------------------------------------------------------------------

MediaInfo:

General
Format                                   : AVI
Format/Info                              : Audio Video Interleave
File size                                : 697 MiB
Duration                                 : 1h 29mn
Overall bit rate mode                    : Variable
Overall bit rate                         : 1 091 Kbps
Writing application                      : Nandub v1.0rc2
Writing library                          : Nandub build 1852/release

Video
ID                                       : 0
Format                                   : MPEG-4 Visual
Format profile                           : Simple@L3
Format settings, BVOP                    : No
Format settings, QPel                    : No
Format settings, GMC                     : No warppoints
Format settings, Matrix                  : Default (H.263)
Codec ID                                 : XVID
Codec ID/Hint                            : XviD
Duration                                 : 1h 29mn
Bit rate                                 : 919 Kbps
Width                                    : 640 pixels
Height                                   : 352 pixels
Display aspect ratio                     : 16:9
Frame rate                               : 25.000 fps
Color space                              : YUV
Chroma subsampling                       : 4:2:0
Bit depth                                : 8 bits
Scan type                                : Progressive
Compression mode                         : Lossy
Bits/(Pixel*Frame)                       : 0.163
Stream size                              : 587 MiB (84%)
Writing library                          : XviD 0.0.09 (UTC 2003-03-25)

Audio
ID                                       : 1
Format                                   : MPEG Audio
Format version                           : Version 1
Format profile                           : Layer 3
Mode                                     : Joint stereo
Codec ID                                 : 55
Codec ID/Hint                            : MP3
Duration                                 : 1h 29mn
Bit rate mode                            : Variable
Bit rate                                 : 159 Kbps
Channel(s)                               : 2 channels
Sampling rate                            : 48.0 KHz
Compression mode                         : Lossy
Stream size                              : 102 MiB (15%)
Alignment                                : Aligned on interleaves
Interleave, duration                     : 24 ms (0.60 video frame)
Interleave, preload duration             : 385 ms
Writing library                          : LAME3.92 
Encoding settings                        : -m j -V 2 -q 2 -lowpass 19 --vbr-old

--------------------------------------------------------------------------------

Screenshots: 
http://i.imgur.com/lotTc.jpg
 
http://i.imgur.com/qywsj.jpg
 
http://i.imgur.com/1oni1.jpg
 
http://i.imgur.com/yrhgZ.jpg
 
http://i.imgur.com/dcyiS.jpg
 
http://i.imgur.com/Ygf6m.jpg
 
http://i.imgur.com/9wGdV.jpg
 
http://i.imgur.com/NWtU3.jpg
 
http://i.imgur.com/rgVRY.jpg
 
http://i.imgur.com/VhNSg.jpg